<svg width="32" height="35" viewBox="0 0 32 35" fill="none" xmlns="http://www.w3.org/2000/svg">
<path d="M23 3.96359C24.2435 3.96352 25.44 4.43862 26.3447 5.29168C27.2494 6.14474 27.7939 7.31127 27.8669 8.55259L27.875 8.83859V25.0886H29.0938C30.1451 25.0886 31.0112 25.8881 31.1152 26.9118L31.125 27.1198V29.9636C31.1251 31.2071 30.65 32.4036 29.7969 33.3083C28.9439 34.213 27.7773 34.7575 26.536 34.8305L26.25 34.8386H10C8.75653 34.8387 7.56004 34.3636 6.65533 33.5105C5.75061 32.6574 5.20608 31.4909 5.13313 30.2496L5.125 29.9636V13.7136H2.28125C1.77838 13.7138 1.2933 13.5275 0.919881 13.1907C0.546459 12.8539 0.311244 12.3906 0.25975 11.8903L0.25 11.6823V8.83859C0.249931 7.59512 0.725028 6.39863 1.57809 5.49392C2.43114 4.58921 3.59767 4.04467 4.839 3.97172L5.125 3.96359H23ZM23 7.21359H8.375V29.9636C8.375 30.3946 8.54621 30.8079 8.85095 31.1126C9.1557 31.4174 9.56902 31.5886 10 31.5886C10.431 31.5886 10.8443 31.4174 11.149 31.1126C11.4538 30.8079 11.625 30.3946 11.625 29.9636V27.1198C11.625 25.9986 12.535 25.0886 13.6562 25.0886H24.625V8.83859C24.625 8.40762 24.4538 7.99429 24.149 7.68954C23.8443 7.3848 23.431 7.21359 23 7.21359ZM27.875 28.3386H14.875V29.9636C14.875 30.5323 14.7775 31.08 14.5988 31.5886H26.25C26.681 31.5886 27.0943 31.4174 27.399 31.1126C27.7038 30.8079 27.875 30.3946 27.875 29.9636V28.3386ZM16.5 18.5886C16.931 18.5886 17.3443 18.7598 17.649 19.0645C17.9538 19.3693 18.125 19.7826 18.125 20.2136C18.125 20.6446 17.9538 21.0579 17.649 21.3626C17.3443 21.6674 16.931 21.8386 16.5 21.8386H13.25C12.819 21.8386 12.4057 21.6674 12.101 21.3626C11.7962 21.0579 11.625 20.6446 11.625 20.2136C11.625 19.7826 11.7962 19.3693 12.101 19.0645C12.4057 18.7598 12.819 18.5886 13.25 18.5886H16.5ZM19.75 12.0886C20.181 12.0886 20.5943 12.2598 20.899 12.5645C21.2038 12.8693 21.375 13.2826 21.375 13.7136C21.375 14.1446 21.2038 14.5579 20.899 14.8626C20.5943 15.1674 20.181 15.3386 19.75 15.3386H13.25C12.819 15.3386 12.4057 15.1674 12.101 14.8626C11.7962 14.5579 11.625 14.1446 11.625 13.7136C11.625 13.2826 11.7962 12.8693 12.101 12.5645C12.4057 12.2598 12.819 12.0886 13.25 12.0886H19.75ZM5.125 7.21359C4.72698 7.21364 4.34283 7.35977 4.0454 7.62425C3.74796 7.88874 3.55794 8.25318 3.51137 8.64847L3.5 8.83859V10.4636H5.125V7.21359Z" fill="#464646"/>
</svg>
